<?xml version="1.0" encoding="UTF-8" standalone="no"?>
<!-- Created with Inkscape (http://www.inkscape.org/) -->

<svg
   version="1.1"
   id="svg647"
   width="512"
   height="512"
   viewBox="0 0 512 512"
   sodipodi:docname="logo-supernavi.svg"
   inkscape:version="1.2.2 (b0a8486541, 2022-12-01)"
   xmlns:inkscape="http://www.inkscape.org/namespaces/inkscape"
   xmlns:sodipodi="http://sodipodi.sourceforge.net/DTD/sodipodi-0.dtd"
   xmlns="http://www.w3.org/2000/svg"
   xmlns:svg="http://www.w3.org/2000/svg">
  <defs
     id="defs651" />
  <sodipodi:namedview
     id="namedview649"
     pagecolor="#ffffff"
     bordercolor="#000000"
     borderopacity="0.25"
     inkscape:showpageshadow="2"
     inkscape:pageopacity="0.0"
     inkscape:pagecheckerboard="0"
     inkscape:deskcolor="#d1d1d1"
     showgrid="false"
     inkscape:zoom="0.48267563"
     inkscape:cx="477.54638"
     inkscape:cy="110.84048"
     inkscape:window-width="1920"
     inkscape:window-height="1011"
     inkscape:window-x="0"
     inkscape:window-y="32"
     inkscape:window-maximized="1"
     inkscape:current-layer="g653" />
  <g
     inkscape:groupmode="layer"
     inkscape:label="Image"
     id="g653">
    <path
       style="fill:#ffffff"
       d="m 239.9782,402.41025 c -9.80174,-5.71639 -5.42838,-18.72969 -6.36671,-28.22531 -1.17673,-5.26392 1.14054,-9.16975 5.08786,-12.44199 3.20625,-4.01923 9.53652,-1.14118 14.09418,-2.17676 14.08725,-3.46544 30.24512,4.65002 25.66703,21.26101 4.18432,16.40927 -9.25165,27.24402 -24.85764,23.49304 -4.52769,-0.23253 -9.52042,0.46027 -13.62472,-1.90999 z M 118.11149,278.76638 c -11.03389,-8.04754 -9.29575,-28.73844 -2.90845,-39.25881 9.4433,-5.60539 21.22361,-2.34588 31.79019,-3.17936 10.35868,5.00088 10.31745,18.3075 9.25109,28.37928 1.04835,17.53864 -20.09027,16.49623 -32.10943,15.33007 -2.03952,-0.23106 -4.112,-0.45353 -6.0234,-1.27118 z m 245.76969,0.0793 c -10.20163,-5.14247 -6.51434,-18.43025 -7.26794,-27.86537 -1.23392,-5.21718 1.23834,-8.99442 5.08585,-12.23736 3.20627,-4.0183 9.53615,-1.15782 14.09365,-2.20048 12.25323,-2.47568 29.11258,1.87452 25.79746,17.84355 2.87388,13.82971 -3.87575,29.98221 -20.66375,25.90046 -5.66532,-0.12793 -11.5652,0.24487 -17.04527,-1.4408 z M 241.02668,156.94626 c -10.85013,-5.00517 -6.59813,-18.38042 -7.41519,-27.95373 -0.85533,-5.36622 0.32717,-9.88835 5.04612,-12.94564 3.56647,-5.07977 10.60178,-1.78161 15.88513,-2.71478 16.15665,-4.48084 27.78283,8.44751 24.05616,24.12142 3.56635,17.50872 -13.39128,23.54418 -27.55732,20.66511 -3.34385,-0.12706 -6.82969,0.0363 -10.0149,-1.17238 z"
       id="path3961"
       sodipodi:nodetypes="sscccsssscscssccssscccccccsscscccssccccsssscc" />
    <path
       style="fill:#ffffff"
       d="m 215.48393,473.57831 c -1.24387,-1.58606 -1.2085,-1.62143 0.37756,-0.37756 0.9625,0.75485 1.75,1.54235 1.75,1.75 0,0.82304 -0.82119,0.29331 -2.12756,-1.37244 z m 85.54074,-26.75 c 10e-4,-9.9 0.1507,-13.81474 0.33256,-8.69942 0.18186,5.11532 0.181,13.21532 -0.002,18 -0.18291,4.78468 -0.3317,0.59942 -0.33065,-9.30058 z m -49.66318,4.83772 c 0.6875,-0.27741 1.8125,-0.27741 2.5,0 0.6875,0.27741 0.125,0.50439 -1.25,0.50439 -1.375,0 -1.9375,-0.22698 -1.25,-0.50439 z m 22.32895,-13.92105 c 0.048,-1.16495 0.28494,-1.4019 0.60416,-0.60417 0.28887,0.72187 0.25335,1.58438 -0.0789,1.91667 -0.33229,0.33229 -0.56864,-0.25834 -0.52522,-1.3125 z m 0.20706,-6.91667 c 0.008,-2.75 0.20172,-3.75631 0.43157,-2.23625 0.22986,1.52006 0.22371,3.77006 -0.0136,5 -0.23736,1.22994 -0.42542,-0.0138 -0.41792,-2.76375 z m 1.71399,-8.87756 c 0,-0.20765 0.7875,-0.99515 1.75,-1.75 1.58606,-1.24387 1.62143,-1.2085 0.37756,0.37756 -1.30637,1.66575 -2.12756,2.19548 -2.12756,1.37244 z M 408.8975,388.82831 c 0.008,-2.75 0.20172,-3.75631 0.43157,-2.23625 0.22986,1.52006 0.22371,3.77006 -0.0136,5 -0.23736,1.22994 -0.42542,-0.0138 -0.41792,-2.76375 z m -0.12812,-12.5 c 0,-1.375 0.22698,-1.9375 0.50439,-1.25 0.27741,0.6875 0.27741,1.8125 0,2.5 -0.27741,0.6875 -0.50439,0.125 -0.50439,-1.25 z m -202.84802,-5.5 c 0.006,-3.3 0.1923,-4.52944 0.41486,-2.73209 0.22256,1.79735 0.21797,4.49735 -0.0102,6 -0.22818,1.50265 -0.41027,0.0321 -0.40466,-3.26791 z m -75.02386,-1 c 0.008,-2.75 0.20172,-3.75631 0.43157,-2.23625 0.22986,1.52006 0.22371,3.77006 -0.0136,5 -0.23736,1.22994 -0.42542,-0.0138 -0.41792,-2.76375 z m 190.49042,-16.2335 c 2.35204,-0.21124 5.95204,-0.20827 8,0.007 2.04796,0.21487 0.12357,0.38771 -4.27643,0.38408 -4.4,-0.004 -6.07561,-0.17944 -3.72357,-0.39069 z m -83.90399,-15.0165 c -1.24387,-1.58606 -1.2085,-1.62143 0.37756,-0.37756 0.9625,0.75485 1.75,1.54235 1.75,1.75 0,0.82304 -0.82119,0.29331 -2.12756,-1.37244 z m 171.39992,-2.25 c 0,-2.475 0.19502,-3.4875 0.43337,-2.25 0.23836,1.2375 0.23836,3.2625 0,4.5 -0.23835,1.2375 -0.43337,0.225 -0.43337,-2.25 z m -130.8906,-16.5 c 0.002,-6.6 0.16382,-9.16987 0.35965,-5.71081 0.19583,3.45905 0.19422,8.85905 -0.004,12 -0.19781,3.14094 -0.35803,0.31081 -0.35606,-6.28919 z m 15.99641,-0.5 c 0,-6.325 0.16237,-8.9125 0.36082,-5.75 0.19845,3.1625 0.19845,8.3375 0,11.5 -0.19845,3.1625 -0.36082,0.575 -0.36082,-5.75 z m 114.77972,9 c 0,-1.375 0.22698,-1.9375 0.50439,-1.25 0.27741,0.6875 0.27741,1.8125 0,2.5 -0.27741,0.6875 -0.50439,0.125 -0.50439,-1.25 z m -5.28545,-11.75 c -1.24387,-1.58606 -1.2085,-1.62143 0.37756,-0.37756 0.9625,0.75485 1.75,1.54235 1.75,1.75 0,0.82304 -0.82119,0.29331 -2.12756,-1.37244 z m -50.87244,0.37244 c 0,-0.20765 0.7875,-0.99515 1.75,-1.75 1.58606,-1.24387 1.62143,-1.2085 0.37756,0.37756 -1.30637,1.66575 -2.12756,2.19548 -2.12756,1.37244 z m -225.7009,-5.36772 c 4.83951,-0.18371 12.48951,-0.18277 17,0.002 4.5105,0.18485 0.5509,0.33516 -8.7991,0.33401 -9.35,-10e-4 -13.0404,-0.1524 -8.2009,-0.3361 z m 237.4509,0.083 c 0.6875,-0.27741 1.8125,-0.27741 2.5,0 0.6875,0.27741 0.125,0.50439 -1.25,0.50439 -1.375,0 -1.9375,-0.22698 -1.25,-0.50439 z m -67.75,-9.71528 c 0,-0.20765 0.7875,-0.99515 1.75,-1.75 1.58606,-1.24387 1.62143,-1.2085 0.37756,0.37756 -1.30637,1.66575 -2.12756,2.19548 -2.12756,1.37244 z m -254.595011,-3.87244 -1.904988,-2.25 2.25,1.90499 c 2.114445,1.79022 2.705241,2.59501 1.904988,2.59501 -0.189757,0 -1.202257,-1.0125 -2.25,-2.25 z m 52.595012,1.87244 c 0,-0.20765 0.7875,-0.99515 1.75,-1.75 1.586056,-1.24387 1.621426,-1.2085 0.377555,0.37756 -1.306369,1.66575 -2.127555,2.19548 -2.127555,1.37244 z m 212.749999,-3.32817 c 1.2375,-0.23836 3.2625,-0.23836 4.5,0 1.2375,0.23835 0.225,0.43337 -2.25,0.43337 -2.475,0 -3.4875,-0.19502 -2.25,-0.43337 z m 9.9777,-0.016 c 1.77523,-0.22091 4.92523,-0.22454 7,-0.008 2.07476,0.21648 0.6223,0.39722 -3.2277,0.40166 -3.85,0.004 -5.54754,-0.17268 -3.7723,-0.39359 z M 37.911155,285.32831 c 0,-3.025 0.187466,-4.2625 0.41659,-2.75 0.229125,1.5125 0.229125,3.9875 0,5.5 -0.229124,1.5125 -0.41659,0.275 -0.41659,-2.75 z m 377.700335,-4.37756 c 0,-0.20765 0.7875,-0.99515 1.75,-1.75 1.58606,-1.24387 1.62143,-1.2085 0.37756,0.37756 -1.30637,1.66575 -2.12756,2.19548 -2.12756,1.37244 z M 217.99325,257.82831 c 0.002,-6.6 0.16382,-9.16987 0.35965,-5.71081 0.19583,3.45905 0.19422,8.85905 -0.004,12 -0.19781,3.14094 -0.35803,0.31081 -0.35606,-6.28919 z m 121,0 c 0.002,-6.6 0.16382,-9.16987 0.35965,-5.71081 0.19583,3.45905 0.19422,8.85905 -0.004,12 -0.19781,3.14094 -0.35803,0.31081 -0.35606,-6.28919 z m -166.14976,1.5 c 0,-1.925 0.2058,-2.7125 0.45733,-1.75 0.25152,0.9625 0.25152,2.5375 0,3.5 -0.25153,0.9625 -0.45733,0.175 -0.45733,-1.75 z m -135.03705,-3.5 c 0.02038,-1.65 0.244498,-2.20394 0.498042,-1.23097 0.253543,0.97297 0.236869,2.32297 -0.03705,3 -0.273927,0.67703 -0.481372,-0.11903 -0.460992,-1.76903 z m 0.186815,-16 c 0.002,-6.6 0.16382,-9.16987 0.35965,-5.71081 0.19583,3.45905 0.194213,8.85905 -0.0036,12 -0.197803,3.14094 -0.358027,0.31081 -0.35605,-6.28919 z m 134.697185,7.91667 c 0.048,-1.16495 0.28494,-1.4019 0.60416,-0.60417 0.28887,0.72187 0.25335,1.58437 -0.0789,1.91667 -0.3323,0.33229 -0.56864,-0.25834 -0.52522,-1.3125 z m 271.32604,-3.66667 -1.90499,-2.25 2.25,1.90499 c 1.2375,1.04774 2.25,2.06024 2.25,2.25 0,0.80025 -0.80479,0.20945 -2.59501,-1.90499 z m -254.6158,-8.49141 c 3.45905,-0.19583 8.85905,-0.19422 12,0.004 3.14094,0.19781 0.31081,0.35803 -6.28919,0.35606 -6.6,-0.002 -9.16987,-0.16382 -5.71081,-0.35965 z m 121.49732,10e-4 c 3.18258,-0.19905 8.13258,-0.1972 11,0.004 2.86742,0.20131 0.26349,0.36417 -5.78651,0.36191 -6.05,-0.002 -8.39607,-0.16696 -5.21349,-0.36601 z m 159.11848,-15.50959 -1.90499,-2.25 2.25,1.90499 c 2.11444,1.79022 2.70524,2.59501 1.90499,2.59501 -0.18976,0 -1.20226,-1.0125 -2.25,-2.25 z m -218.65499,-0.48724 c 2.8875,-0.202 7.6125,-0.202 10.5,0 2.8875,0.202 0.525,0.36728 -5.25,0.36728 -5.775,0 -8.1375,-0.16528 -5.25,-0.36728 z m 164.25,0.35968 c 0,-0.20765 0.7875,-0.99515 1.75,-1.75 1.58606,-1.24387 1.62143,-1.2085 0.37756,0.37756 -1.30637,1.66575 -2.12756,2.19548 -2.12756,1.37244 z M 61.910591,214.58303 c 4.839505,-0.18371 12.489505,-0.18277 17,0.002 4.510495,0.18485 0.5509,0.33516 -8.7991,0.33401 -9.35,-0.001 -13.040405,-0.1524 -8.2009,-0.3361 z m 371.999999,0 c 4.83951,-0.18371 12.48951,-0.18277 17,0.002 4.5105,0.18485 0.5509,0.33516 -8.7991,0.33401 -9.35,-0.001 -13.0404,-0.1524 -8.2009,-0.3361 z m -200.22015,-6.83805 c 0.048,-1.16495 0.28494,-1.4019 0.60416,-0.60417 0.28887,0.72187 0.25335,1.58437 -0.0789,1.91667 -0.3323,0.33229 -0.56864,-0.25834 -0.52522,-1.3125 z m 60.30281,-10.91667 c 0.002,-6.6 0.16382,-9.16987 0.35965,-5.71081 0.19583,3.45905 0.19422,8.85905 -0.004,12 -0.19781,3.14094 -0.35803,0.31081 -0.35606,-6.28919 z m 110.11824,2.5 c 0.99549,-1.1 2.03498,-2 2.30998,-2 0.275,0 -0.31449,0.9 -1.30998,2 -0.99549,1.1 -2.03498,2 -2.30998,2 -0.275,0 0.31449,-0.9 1.30998,-2 z m 4.57895,-9.58333 c 0.048,-1.16495 0.28494,-1.4019 0.60416,-0.60417 0.28887,0.72187 0.25335,1.58437 -0.0789,1.91667 -0.33229,0.33229 -0.56864,-0.25834 -0.52522,-1.3125 z M 273.48393,177.57831 c -1.24387,-1.58606 -1.2085,-1.62143 0.37756,-0.37756 0.9625,0.75485 1.75,1.54235 1.75,1.75 0,0.82304 -0.82119,0.29331 -2.12756,-1.37244 z m -88.60869,-3.96758 c 1.52006,-0.22986 3.77006,-0.22371 5,0.0136 1.22994,0.23736 -0.0137,0.42542 -2.76375,0.41792 -2.75,-0.008 -3.75631,-0.20172 -2.23625,-0.43157 z m 177.48625,-1.98815 c 1.2375,-0.23836 3.2625,-0.23836 4.5,0 1.2375,0.23835 0.225,0.43337 -2.25,0.43337 -2.475,0 -3.4875,-0.19502 -2.25,-0.43337 z m -179.96648,-9.03267 c 2.90594,-0.20265 7.40594,-0.20052 10,0.005 2.59406,0.20525 0.21648,0.37104 -5.28352,0.36844 -5.5,-0.003 -7.62242,-0.17053 -4.71648,-0.37317 z m 136.48551,0.0454 c 0.97297,-0.25354 2.32297,-0.23687 3,0.0371 0.67703,0.27393 -0.11903,0.48137 -1.76903,0.46099 -1.65,-0.0204 -2.20394,-0.2445 -1.23097,-0.49804 z m 12.54347,0.01 c 0.72187,-0.28887 1.58438,-0.25335 1.91667,0.0789 0.33229,0.33229 -0.25834,0.56864 -1.3125,0.52522 -1.16495,-0.048 -1.4019,-0.28494 -0.60417,-0.60416 z m 77.45986,-3.317 c 0,-2.475 0.19502,-3.4875 0.43337,-2.25 0.23836,1.2375 0.23836,3.2625 0,4.5 -0.23835,1.2375 -0.43337,0.225 -0.43337,-2.25 z m -237.86737,-0.25 -1.90499,-2.25 2.25,1.90499 c 2.11444,1.79022 2.70524,2.59501 1.90499,2.59501 -0.18976,0 -1.20226,-1.0125 -2.25,-2.25 z m -40.17299,-9.75 c 0,-1.925 0.2058,-2.7125 0.45733,-1.75 0.25152,0.9625 0.25152,2.5375 0,3.5 -0.25153,0.9625 -0.45733,0.175 -0.45733,-1.75 z m 37.05401,-1.5 c 0.008,-2.75 0.20172,-3.75631 0.43157,-2.23625 0.22986,1.52006 0.22371,3.77006 -0.0136,5 -0.23736,1.22994 -0.42542,-0.0137 -0.41792,-2.76375 z m 175.98635,-0.5 c 0,-2.475 0.19502,-3.4875 0.43337,-2.25 0.23836,1.2375 0.23836,3.2625 0,4.5 -0.23835,1.2375 -0.43337,0.225 -0.43337,-2.25 z m -213.19341,-3.58333 c 0.048,-1.16495 0.28494,-1.4019 0.60416,-0.60417 0.28887,0.72187 0.25335,1.58437 -0.0789,1.91667 -0.3323,0.33229 -0.56864,-0.25834 -0.52522,-1.3125 z m 13.17105,-9.15566 c 3.1625,-0.19845 8.3375,-0.19845 11.5,0 3.1625,0.19845 0.575,0.36082 -5.75,0.36082 -6.325,0 -8.9125,-0.16237 -5.75,-0.36082 z m 213.5,0.002 c 2.8875,-0.202 7.6125,-0.202 10.5,0 2.8875,0.202 0.525,0.36728 -5.25,0.36728 -5.775,0 -8.1375,-0.16528 -5.25,-0.36728 z m 51.32895,-9.84609 c 0.048,-1.16495 0.28494,-1.4019 0.60416,-0.60417 0.28887,0.72187 0.25335,1.58437 -0.0789,1.91667 -0.33229,0.33229 -0.56864,-0.25834 -0.52522,-1.3125 z M 223.88052,100.63532 c 0.97297,-0.25354 2.32297,-0.23687 3,0.0371 0.67703,0.27392 -0.11903,0.48137 -1.76903,0.46099 -1.65,-0.0204 -2.20394,-0.2445 -1.23097,-0.49804 z m 62,0 c 0.97297,-0.25354 2.32297,-0.23687 3,0.0371 0.67703,0.27392 -0.11903,0.48137 -1.76903,0.46099 -1.65,-0.0204 -2.20394,-0.2445 -1.23097,-0.49804 z m -71.39659,-4.057009 c -1.24387,-1.586056 -1.2085,-1.621426 0.37756,-0.377555 1.66575,1.306369 2.19548,2.127555 1.37244,2.127555 -0.20765,0 -0.99515,-0.7875 -1.75,-1.75 z m 19.12756,1.372445 c 0,-0.207656 0.7875,-0.995156 1.75,-1.75 1.58606,-1.243871 1.62143,-1.208501 0.37756,0.377555 -1.30637,1.665748 -2.12756,2.195479 -2.12756,1.372445 z m 67.42019,-27.122445 c -8.9e-4,-11 0.14522,-15.636437 0.32467,-10.303194 0.17945,5.333244 0.18018,14.333244 0.002,20 -0.17896,5.666757 -0.32579,1.303194 -0.32667,-9.696806 z m -27.16801,10 c 0.0111,-2.2 0.21589,-2.982253 0.45508,-1.738341 0.23919,1.243913 0.23011,3.043913 -0.0202,4 -0.25029,0.956088 -0.446,-0.06166 -0.4349,-2.261659 z"
       id="path3959" />
    <path
       style="fill:#ffffff"
       d="m 176.91004,340.36879 c -5.36292,-3.26996 -6.29901,-6.35429 -6.29481,-20.74082 0.003,-10.92269 0.28947,-13.26828 1.95226,-15.99533 3.31217,-5.43211 6.18479,-6.62767 16.89582,-7.03185 14.87263,-0.56122 19.69967,0.29004 24.0061,4.23355 l 3.64208,3.33516 0.29374,13.8294 c 0.46824,22.04473 -1.76731,24.33176 -23.77814,24.32567 -11.6407,-0.003 -13.95971,-0.27452 -16.71705,-1.95578 z m 124,0 c -5.43223,-3.31222 -6.29855,-6.28431 -6.29855,-21.60847 v -13.6673 l 3.88235,-3.88236 c 4.29157,-4.29157 2.57322,-4.01735 24.97461,-3.98551 10.41803,0.0148 12.88448,0.99113 16.18704,6.40749 1.65701,2.71757 1.94852,5.06578 1.94852,15.69567 0,14.04609 -1.11107,17.27258 -7.23338,21.0054 -2.82718,1.72376 -5.04839,1.98712 -16.75914,1.98712 -11.6294,0 -13.9436,-0.27048 -16.70145,-1.95204 z m -124,-123 c -5.3701,-3.27433 -6.29855,-6.34674 -6.29855,-20.84294 0,-11.77401 0.1993,-13.19751 2.28002,-16.28509 3.57314,-5.30219 5.66803,-5.88297 21.21998,-5.88297 15.55195,0 17.64684,0.58078 21.21998,5.88297 2.06849,3.06943 2.28002,4.53227 2.28002,15.76755 0,14.25582 -1.15339,18.22374 -6.18982,21.29437 -2.90394,1.77048 -5.02832,2.01815 -17.31018,2.01815 -12.12531,0 -14.4287,-0.26139 -17.20145,-1.95204 z m 121.5838,-1.92283 -3.88235,-3.88236 v -14.73529 -14.73529 l 3.88235,-3.88236 3.88236,-3.88235 14.86764,0.004 c 22.51278,0.005 24.36765,1.72408 24.36765,22.57831 0,11.13092 -0.25636,13.09643 -2.09654,16.0739 -3.48027,5.6312 -6.00447,6.34379 -22.47145,6.34379 h -14.6673 z"
       id="path3957" />
    <path
       style="fill:#ffffff"
       d="m 224.42399,477.6452 c 0.72187,-0.28887 1.58437,-0.25335 1.91667,0.0789 0.33229,0.33229 -0.25834,0.56864 -1.3125,0.52522 -1.16495,-0.048 -1.4019,-0.28494 -0.60417,-0.60416 z m 62,0 c 0.72187,-0.28887 1.58438,-0.25335 1.91667,0.0789 0.33229,0.33229 -0.25834,0.56864 -1.3125,0.52522 -1.16495,-0.048 -1.4019,-0.28494 -0.60417,-0.60416 z m -74.61755,-12.81689 c 0.0204,-1.65 0.2445,-2.20394 0.49804,-1.23097 0.25354,0.97297 0.23687,2.32297 -0.0371,3 -0.27393,0.67703 -0.48137,-0.11903 -0.46099,-1.76903 z m 0,-13 c 0.0204,-1.65 0.2445,-2.20394 0.49804,-1.23097 0.25354,0.97297 0.23687,2.32297 -0.0371,3 -0.27393,0.67703 -0.48137,-0.11903 -0.46099,-1.76903 z m 34.05505,-0.18933 c 0.9625,-0.25152 2.5375,-0.25152 3.5,0 0.9625,0.25153 0.175,0.45733 -1.75,0.45733 -1.925,0 -2.7125,-0.2058 -1.75,-0.45733 z m 11.4777,-0.0324 c 1.77523,-0.22091 4.92523,-0.22454 7,-0.008 2.07476,0.21648 0.6223,0.39722 -3.2277,0.40166 -3.85,0.004 -5.54754,-0.17268 -3.7723,-0.39359 z m 16.5043,-9.27827 c 0,-1.925 0.2058,-2.7125 0.45733,-1.75 0.25152,0.9625 0.25152,2.5375 0,3.5 -0.25153,0.9625 -0.45733,0.175 -0.45733,-1.75 z m -62.03705,-13.5 c 0.0204,-1.65 0.2445,-2.20394 0.49804,-1.23097 0.25354,0.97297 0.23687,2.32297 -0.0371,3 -0.27393,0.67703 -0.48137,-0.11903 -0.46099,-1.76903 z m 22.67749,-8.25 c -1.24387,-1.58606 -1.2085,-1.62143 0.37756,-0.37756 0.9625,0.75485 1.75,1.54235 1.75,1.75 0,0.82304 -0.82119,0.29331 -2.12756,-1.37244 z m 62,0 c -1.24387,-1.58606 -1.2085,-1.62143 0.37756,-0.37756 0.9625,0.75485 1.75,1.54235 1.75,1.75 0,0.82304 -0.82119,0.29331 -2.12756,-1.37244 z m -72.60341,-3.94299 c 0.97297,-0.25354 2.32297,-0.23687 3,0.0371 0.67703,0.27393 -0.11903,0.48137 -1.76903,0.46099 -1.65,-0.0204 -2.20394,-0.2445 -1.23097,-0.49804 z m 62.48097,0.0307 c 0.6875,-0.27741 1.8125,-0.27741 2.5,0 0.6875,0.27741 0.125,0.50439 -1.25,0.50439 -1.375,0 -1.9375,-0.22698 -1.25,-0.50439 z m -177.34501,-13.58771 -1.90499,-2.25 2.25,1.90499 c 1.2375,1.04774 2.25,2.06024 2.25,2.25 0,0.80025 -0.80479,0.20945 -2.59501,-1.90499 z m 92.09501,0.25 c 0.99549,-1.1 2.03498,-2 2.30998,-2 0.275,0 -0.31449,0.9 -1.30998,2 -0.99549,1.1 -2.03498,2 -2.30998,2 -0.275,0 0.31449,-0.9 1.30998,-2 z m 108.90499,-0.25 -1.90499,-2.25 2.25,1.90499 c 2.11444,1.79022 2.70524,2.59501 1.90499,2.59501 -0.18976,0 -1.20226,-1.0125 -2.25,-2.25 z m -4.00505,-23.25 c 10e-4,-8.25 0.15629,-11.49193 0.34419,-7.20429 0.1879,4.28763 0.18676,11.03763 -0.003,15 -0.1893,3.96236 -0.34304,0.45429 -0.34164,-7.79571 z m -202.14776,10 c 0.0111,-2.2 0.21589,-2.98225 0.45508,-1.73834 0.23919,1.24391 0.23011,3.04391 -0.0202,4 -0.25029,0.95609 -0.446,-0.0617 -0.4349,-2.26166 z m 304.97982,-8.5 c 0,-1.925 0.2058,-2.7125 0.45733,-1.75 0.25152,0.9625 0.25152,2.5375 0,3.5 -0.25153,0.9625 -0.45733,0.175 -0.45733,-1.75 z m -265.95183,0.26373 c 2.6291,-0.20668 6.6791,-0.20418 9,0.006 2.32091,0.20972 0.16983,0.37882 -4.78017,0.37577 -4.95,-0.003 -6.84892,-0.17464 -4.21983,-0.38131 z m 16.53233,0.0532 c 0.72187,-0.28887 1.58437,-0.25335 1.91667,0.0789 0.33229,0.33229 -0.25834,0.56864 -1.3125,0.52522 -1.16495,-0.048 -1.4019,-0.28494 -0.60417,-0.60416 z m 195.4375,-0.0519 c 2.6125,-0.206 6.8875,-0.206 9.5,0 2.6125,0.206 0.475,0.37454 -4.75,0.37454 -5.225,0 -7.3625,-0.16854 -4.75,-0.37454 z m 16.01903,0.0421 c 0.97297,-0.25354 2.32297,-0.23687 3,0.0371 0.67703,0.27393 -0.11903,0.48137 -1.76903,0.46099 -1.65,-0.0204 -2.20394,-0.2445 -1.23097,-0.49804 z m -25.39659,-3.05713 c -1.24387,-1.58606 -1.2085,-1.62143 0.37756,-0.37756 0.9625,0.75485 1.75,1.54235 1.75,1.75 0,0.82304 -0.82119,0.29331 -2.12756,-1.37244 z m 63.35956,-7.25 c 0,-1.925 0.2058,-2.7125 0.45733,-1.75 0.25152,0.9625 0.25152,2.5375 0,3.5 -0.25153,0.9625 -0.45733,0.175 -0.45733,-1.75 z m 0.10421,-11 c 0,-4.125 0.17651,-5.8125 0.39226,-3.75 0.21574,2.0625 0.21574,5.4375 0,7.5 -0.21575,2.0625 -0.39226,0.375 -0.39226,-3.75 z m -69.93122,-3.25 -1.90499,-2.25 2.25,1.90499 c 2.11444,1.79022 2.70524,2.59501 1.90499,2.59501 -0.18976,0 -1.20226,-1.0125 -2.25,-2.25 z m 42.82701,-0.75 c 0,-1.925 0.2058,-2.7125 0.45733,-1.75 0.25152,0.9625 0.25152,2.5375 0,3.5 -0.25153,0.9625 -0.45733,0.175 -0.45733,-1.75 z m -180.35956,0.25 c -1.24387,-1.58606 -1.2085,-1.62143 0.37756,-0.37756 1.66575,1.30637 2.19548,2.12756 1.37244,2.12756 -0.20765,0 -0.99515,-0.7875 -1.75,-1.75 z m 207.43743,-10.75 c 0.006,-3.3 0.1923,-4.52944 0.41486,-2.73209 0.22256,1.79735 0.21797,4.49735 -0.0102,6 -0.22818,1.50265 -0.41027,0.0321 -0.40466,-3.26791 z m -275.80987,1.5 c 0.99549,-1.1 2.03498,-2 2.30998,-2 0.275,0 -0.31449,0.9 -1.30998,2 -0.99549,1.1 -2.03498,2 -2.30998,2 -0.275,0 0.31449,-0.9 1.30998,-2 z m 23.5,-5.37756 c 0,-0.20765 0.7875,-0.99515 1.75,-1.75 1.58606,-1.24387 1.62143,-1.2085 0.37756,0.37756 -1.30637,1.66575 -2.12756,2.19548 -2.12756,1.37244 z m 87.8125,-0.30555 c 0.72187,-0.28887 1.58437,-0.25335 1.91667,0.0789 0.33229,0.33229 -0.25834,0.56864 -1.3125,0.52522 -1.16495,-0.048 -1.4019,-0.28494 -0.60417,-0.60416 z m 21,0 c 0.72187,-0.28887 1.58438,-0.25335 1.91667,0.0789 0.33229,0.33229 -0.25834,0.56864 -1.3125,0.52522 -1.16495,-0.048 -1.4019,-0.28494 -0.60417,-0.60416 z m 88.05994,-1.06689 c -1.24387,-1.58606 -1.2085,-1.62143 0.37756,-0.37756 1.66575,1.30637 2.19548,2.12756 1.37244,2.12756 -0.20765,0 -0.99515,-0.7875 -1.75,-1.75 z m -192.51748,-12.75 c -0.003,-4.95 0.16605,-7.10108 0.37577,-4.78017 0.20972,2.3209 0.21222,6.3709 0.006,9 -0.20667,2.62909 -0.37827,0.73017 -0.38131,-4.21983 z m 189.98125,0.5 c 0,-4.125 0.17651,-5.8125 0.39226,-3.75 0.21574,2.0625 0.21574,5.4375 0,7.5 -0.21575,2.0625 -0.39226,0.375 -0.39226,-3.75 z m -116.96214,-8.5 c 0.002,-6.05 0.16696,-8.39607 0.36601,-5.21349 0.19905,3.18258 0.1972,8.13258 -0.004,11 -0.20131,2.86742 -0.36417,0.26349 -0.36191,-5.78651 z m -130.21618,7.5 c 0,-1.375 0.22698,-1.9375 0.50439,-1.25 0.27741,0.6875 0.27741,1.8125 0,2.5 -0.27741,0.6875 -0.50439,0.125 -0.50439,-1.25 z m 4.84211,-10.5 c 1.29175,-1.375 2.57363,-2.5 2.84863,-2.5 0.275,0 -0.55688,1.125 -1.84863,2.5 -1.29175,1.375 -2.57363,2.5 -2.84863,2.5 -0.275,0 0.55688,-1.125 1.84863,-2.5 z M 60.81091,302.58448 c 4.78468,-0.18291 12.88468,-0.18377 18,-0.002 5.115319,0.18186 1.200581,0.33151 -8.699419,0.33256 -9.9,0.001 -14.085262,-0.14774 -9.300581,-0.33065 z m 373.05058,-7.4e-4 c 4.8125,-0.18331 12.6875,-0.18331 17.5,0 4.8125,0.18332 0.875,0.3333 -8.75,0.3333 -9.625,0 -13.5625,-0.14998 -8.75,-0.3333 z m -160.37756,-2.00543 c -1.24387,-1.58606 -1.2085,-1.62143 0.37756,-0.37756 1.66575,1.30637 2.19548,2.12756 1.37244,2.12756 -0.20765,0 -0.99515,-0.7875 -1.75,-1.75 z m 143,-2 c -1.24387,-1.58606 -1.2085,-1.62143 0.37756,-0.37756 0.9625,0.75485 1.75,1.54235 1.75,1.75 0,0.82304 -0.82119,0.29331 -2.12756,-1.37244 z M 250.898,296.58823 c 3.18258,-0.19905 8.13258,-0.1972 11,0.004 2.86742,0.20131 0.26349,0.36417 -5.78651,0.36191 -6.05,-0.002 -8.39607,-0.16696 -5.21349,-0.36601 z M 98.883855,289.32831 c 0,-2.475 0.195016,-3.4875 0.433369,-2.25 0.238353,1.2375 0.238353,3.2625 0,4.5 -0.238353,1.2375 -0.433369,0.225 -0.433369,-2.25 z m 313.806585,0.41667 c 0.048,-1.16495 0.28494,-1.4019 0.60416,-0.60417 0.28887,0.72187 0.25335,1.58438 -0.0789,1.91667 -0.33229,0.33229 -0.56864,-0.25834 -0.52522,-1.3125 z m 61,0 c 0.048,-1.16495 0.28494,-1.4019 0.60416,-0.60417 0.28887,0.72187 0.25335,1.58438 -0.0789,1.91667 -0.33229,0.33229 -0.56864,-0.25834 -0.52522,-1.3125 z M 37.98966,269.32831 c 0,-6.325 0.162369,-8.9125 0.360819,-5.75 0.198451,3.1625 0.198451,8.3375 0,11.5 -0.19845,3.1625 -0.360819,0.575 -0.360819,-5.75 z m 151.37183,10.2596 c 3.4375,-0.19527 9.0625,-0.19527 12.5,0 3.4375,0.19527 0.625,0.35504 -6.25,0.35504 -6.875,0 -9.6875,-0.15977 -6.25,-0.35504 z m 122.03919,-0.001 c 3.45905,-0.19583 8.85905,-0.19422 12,0.004 3.14094,0.19781 0.31081,0.35803 -6.28919,0.35606 -6.6,-0.002 -9.16987,-0.16382 -5.71081,-0.35965 z m -13.3842,-3.5086 -1.90499,-2.25 2.25,1.90499 c 2.11444,1.79022 2.70524,2.59501 1.90499,2.59501 -0.18976,0 -1.20226,-1.0125 -2.25,-2.25 z m 36.09501,0.25 c 0.99549,-1.1 2.03498,-2 2.30998,-2 0.275,0 -0.31449,0.9 -1.30998,2 -0.99549,1.1 -2.03498,2 -2.30998,2 -0.275,0 0.31449,-0.9 1.30998,-2 z m -257.219826,0.26373 c 2.629095,-0.20668 6.679095,-0.20418 9,0.006 2.320905,0.20972 0.169827,0.37882 -4.780173,0.37577 -4.95,-0.003 -6.848922,-0.17464 -4.219827,-0.38131 z m 350.999996,0 c 2.6291,-0.20668 6.6791,-0.20418 9,0.006 2.32091,0.20972 0.16983,0.37882 -4.78017,0.37577 -4.95,-0.003 -6.84892,-0.17464 -4.21983,-0.38131 z M 64.981456,259.32831 c 0,-5.775 0.165274,-8.1375 0.367277,-5.25 0.202002,2.8875 0.202002,7.6125 0,10.5 -0.202003,2.8875 -0.367277,0.525 -0.367277,-5.25 z m 107.862034,6 c 0,-1.925 0.2058,-2.7125 0.45733,-1.75 0.25152,0.9625 0.25152,2.5375 0,3.5 -0.25153,0.9625 -0.45733,0.175 -0.45733,-1.75 z m 121.14207,-7.5 c 0.002,-6.05 0.16696,-8.39607 0.36601,-5.21349 0.19905,3.18258 0.1972,8.13258 -0.004,11 -0.20131,2.86742 -0.36417,0.26349 -0.36191,-5.78651 z m -121.12189,-5 c 0.0111,-2.2 0.21589,-2.98225 0.45508,-1.73834 0.23919,1.24391 0.23011,3.04391 -0.0202,4 -0.25029,0.95609 -0.446,-0.0617 -0.4349,-2.26166 z m 2.74782,-11.87756 c 0,-0.20765 0.7875,-0.99515 1.75,-1.75 1.58606,-1.24387 1.62143,-1.2085 0.37756,0.37756 -1.30637,1.66575 -2.12756,2.19548 -2.12756,1.37244 z m 37.87244,-1.37244 c -1.24387,-1.58606 -1.2085,-1.62143 0.37756,-0.37756 0.9625,0.75485 1.75,1.54235 1.75,1.75 0,0.82304 -0.82119,0.29331 -2.12756,-1.37244 z m 121,0 c -1.24387,-1.58606 -1.2085,-1.62143 0.37756,-0.37756 1.66575,1.30637 2.19548,2.12756 1.37244,2.12756 -0.20765,0 -0.99515,-0.7875 -1.75,-1.75 z m -239.372439,-2.25 c 0.995486,-1.1 2.034975,-2 2.309975,-2 0.275,0 -0.314489,0.9 -1.309975,2 -0.995486,1.1 -2.034975,2 -2.309975,2 -0.275,0 0.314489,-0.9 1.309975,-2 z m 3.732003,-9 c 0,-1.925 0.205795,-2.7125 0.457323,-1.75 0.251527,0.9625 0.251527,2.5375 0,3.5 -0.251528,0.9625 -0.457323,0.175 -0.457323,-1.75 z m -56.232003,-8.5 c 1.291745,-1.375 2.573628,-2.5 2.848628,-2.5 0.275,0 -0.556883,1.125 -1.848628,2.5 -1.291745,1.375 -2.573628,2.5 -2.848628,2.5 -0.275,0 0.556883,-1.125 1.848628,-2.5 z m 52.404988,-0.75 -1.904988,-2.25 2.25,1.90499 c 1.2375,1.04774 2.25,2.06024 2.25,2.25 0,0.80025 -0.804794,0.20945 -2.595012,-1.90499 z m 177.595011,-2.12756 c 0,-0.20765 0.7875,-0.99515 1.75,-1.75 1.58606,-1.24387 1.62143,-1.2085 0.37756,0.37756 -1.30637,1.66575 -2.12756,2.19548 -2.12756,1.37244 z m 5.36996,-19.62244 c 0,-5.775 0.16528,-8.1375 0.36728,-5.25 0.202,2.8875 0.202,7.6125 0,10.5 -0.202,2.8875 -0.36728,0.525 -0.36728,-5.25 z m -44.0703,4 c 0,-3.025 0.18747,-4.2625 0.41659,-2.75 0.22913,1.5125 0.22913,3.9875 0,5.5 -0.22912,1.5125 -0.41659,0.275 -0.41659,-2.75 z m -107.00056,3.25472 c 4.83951,-0.18371 12.48951,-0.18277 17,0.002 4.5105,0.18485 0.5509,0.33516 -8.7991,0.33401 -9.35,-0.001 -13.0404,-0.1524 -8.2009,-0.3361 z m 243.4509,0.001 c 4.5375,-0.18529 11.9625,-0.18529 16.5,0 4.5375,0.1853 0.825,0.3369 -8.25,0.3369 -9.075,0 -12.7875,-0.1516 -8.25,-0.3369 z m -213.25,-3.25572 c 0.99549,-1.1 2.03498,-2 2.30998,-2 0.275,0 -0.31449,0.9 -1.30998,2 -0.99549,1.1 -2.03498,2 -2.30998,2 -0.275,0 0.31449,-0.9 1.30998,-2 z m -48.09501,-1.25 -1.90499,-2.25 2.25,1.90499 c 2.11444,1.79022 2.70524,2.59501 1.90499,2.59501 -0.18976,0 -1.20226,-1.0125 -2.25,-2.25 z m 244.46745,0.5 c -1.24387,-1.58606 -1.2085,-1.62143 0.37756,-0.37756 0.9625,0.75485 1.75,1.54235 1.75,1.75 0,0.82304 -0.82119,0.29331 -2.12756,-1.37244 z m -192.53623,-12.25 c 0,-4.125 0.17651,-5.8125 0.39226,-3.75 0.21574,2.0625 0.21574,5.4375 0,7.5 -0.21575,2.0625 -0.39226,0.375 -0.39226,-3.75 z m 190.0066,-0.5 c 0.004,-4.4 0.17944,-6.07561 0.39069,-3.72357 0.21124,2.35204 0.20827,5.95204 -0.007,8 -0.21487,2.04796 -0.38771,0.12357 -0.38408,-4.27643 z m -117.09063,3 c 0.0111,-2.2 0.21589,-2.98225 0.45508,-1.73834 0.23919,1.24391 0.23011,3.04391 -0.0202,4 -0.25029,0.95609 -0.446,-0.0617 -0.4349,-2.26166 z m -130.17323,-2.08333 c 0.048,-1.16495 0.28494,-1.4019 0.60416,-0.60417 0.28887,0.72187 0.25335,1.58437 -0.0789,1.91667 -0.3323,0.33229 -0.56864,-0.25834 -0.52522,-1.3125 z m 305.15305,-3.41667 c 0,-1.925 0.2058,-2.7125 0.45733,-1.75 0.25152,0.9625 0.25152,2.5375 0,3.5 -0.25153,0.9625 -0.45733,0.175 -0.45733,-1.75 z m -305.15305,-1.58333 c 0.048,-1.16495 0.28494,-1.4019 0.60416,-0.60417 0.28887,0.72187 0.25335,1.58437 -0.0789,1.91667 -0.3323,0.33229 -0.56864,-0.25834 -0.52522,-1.3125 z m 305.28155,-11.41667 c 0,-5.225 0.16854,-7.3625 0.37454,-4.75 0.206,2.6125 0.206,6.8875 0,9.5 -0.206,2.6125 -0.37454,0.475 -0.37454,-4.75 z m -251.48806,3.25 c -1.24387,-1.58606 -1.2085,-1.62143 0.37756,-0.37756 0.9625,0.75485 1.75,1.54235 1.75,1.75 0,0.82304 -0.82119,0.29331 -2.12756,-1.37244 z m 86.87756,-0.91228 c 0.6875,-0.27741 1.8125,-0.27741 2.5,0 0.6875,0.27741 0.125,0.50439 -1.25,0.50439 -1.375,0 -1.9375,-0.22698 -1.25,-0.50439 z m 11.5,-0.054 c 1.5125,-0.22913 3.9875,-0.22913 5.5,0 1.5125,0.22912 0.275,0.41659 -2.75,0.41659 -3.025,0 -4.2625,-0.18747 -2.75,-0.41659 z m 9.5,0.054 c 0.6875,-0.27741 1.8125,-0.27741 2.5,0 0.6875,0.27741 0.125,0.50439 -1.25,0.50439 -1.375,0 -1.9375,-0.22698 -1.25,-0.50439 z m -132.87756,-6.08772 c -1.24387,-1.58606 -1.2085,-1.62143 0.37756,-0.37756 0.9625,0.75485 1.75,1.54235 1.75,1.75 0,0.82304 -0.82119,0.29331 -2.12756,-1.37244 z m 173.53235,-31.75 c 0.001,-8.8 0.15425,-12.26613 0.33996,-7.70252 0.18572,4.56362 0.18468,11.76362 -0.002,16 -0.18698,4.23639 -0.33893,0.50252 -0.33766,-8.29748 z m 102.98693,2.5 c 0,-7.425 0.15742,-10.4625 0.34983,-6.75 0.19241,3.7125 0.19241,9.7875 0,13.5 -0.19241,3.7125 -0.34983,0.675 -0.34983,-6.75 z M 103.69044,124.74498 c 0.048,-1.16495 0.28494,-1.4019 0.60416,-0.60417 0.28887,0.72187 0.25335,1.58437 -0.0789,1.91667 -0.3323,0.33229 -0.56864,-0.25834 -0.52522,-1.3125 z m 4.92105,-10.91667 c 1.29175,-1.375 2.57363,-2.5 2.84863,-2.5 0.275,0 -0.55688,1.125 -1.84863,2.5 -1.29175,1.375 -2.57363,2.5 -2.84863,2.5 -0.275,0 0.55688,-1.125 1.84863,-2.5 z m 92.40499,-0.75 -1.90499,-2.25 2.25,1.90499 c 2.11444,1.79022 2.70524,2.59501 1.90499,2.59501 -0.18976,0 -1.20226,-1.0125 -2.25,-2.25 z m -8.59249,-4.43311 c 0.72187,-0.28887 1.58437,-0.25335 1.91667,0.0789 0.33229,0.3323 -0.25834,0.56864 -1.3125,0.52522 -1.16495,-0.048 -1.4019,-0.28494 -0.60417,-0.60416 z m 200,0 c 0.72187,-0.28887 1.58438,-0.25335 1.91667,0.0789 0.33229,0.3323 -0.25834,0.56864 -1.3125,0.52522 -1.16495,-0.048 -1.4019,-0.28494 -0.60417,-0.60416 z M 273.80644,86.828311 c 0.0204,-1.65 0.2445,-2.203936 0.49804,-1.230968 0.25354,0.972967 0.23687,2.322967 -0.0371,3 -0.27388,0.677032 -0.48132,-0.119032 -0.46094,-1.769032 z m 0,-12 c 0.0204,-1.65 0.2445,-2.203936 0.49804,-1.230968 0.25354,0.972967 0.23687,2.322967 -0.0371,3 -0.27388,0.677032 -0.48132,-0.119032 -0.46094,-1.769032 z m -61.96295,-22.5 c 0,-1.925 0.2058,-2.7125 0.45733,-1.75 0.25152,0.9625 0.25152,2.5375 0,3.5 -0.25153,0.9625 -0.45733,0.175 -0.45733,-1.75 z m 84.17299,-9.25 -1.90499,-2.25 2.25,1.904988 c 1.2375,1.047743 2.25,2.060243 2.25,2.25 0,0.800253 -0.80479,0.209457 -2.59501,-1.904988 z m -55.15499,-4.4981 c 8.6625,-0.166477 22.8375,-0.166477 31.5,0 8.6625,0.166477 1.575,0.302686 -15.75,0.302686 -17.325,0 -24.4125,-0.136209 -15.75,-0.302686 z"
       id="path3955" />
    <path
       style="fill:#ffffff"
       d="m 219.28384,475.22039 c -10.14054,-13.92645 -10.37941,-42.37478 -0.31527,-56.25724 29.84526,-11.43512 7.40621,42.09428 37.06723,33.34292 30.68731,9.22677 7.53227,-46.57444 38.67781,-32.6912 8.6672,14.90807 12.02156,49.61929 -7.04192,57.18904 -21.79399,0.57105 -43.74788,1.17693 -65.48752,-0.46322 z M 46.624111,300.05339 c -15.583495,-14.39035 -4.882084,-41.17295 -7.892944,-60.65207 -2.699283,-13.06434 6.189145,-27.07867 20.14297,-23.07301 11.133622,0.58318 23.234343,-1.16841 33.76402,0.87282 17.391633,16.85673 -8.572157,27.20609 -23.433109,25.6399 -12.556032,14.93338 -2.685592,42.2631 20.078366,35.14589 23.511016,9.43632 -2.872525,32.61112 -19.830364,24.34139 -7.560618,-0.44261 -15.801319,1.20949 -22.828939,-2.27492 z m 374.487379,0.87241 c -20.19297,-14.056 5.85414,-28.30852 21.28527,-24.72288 15.54395,-14.81414 4.1143,-42.86159 -19.11838,-36.0779 -23.14673,-12.04061 1.87758,-30.80604 18.51121,-23.79671 20.27399,-5.23648 37.71345,7.00094 31.79713,28.8124 -3.74521,18.09222 10.31937,50.3564 -13.54667,56.49068 -12.87514,0.76225 -26.19389,1.47543 -38.92856,-0.70559 z M 218.80958,98.710958 c -11.39602,-9.807622 -4.32959,-27.989876 -5.8305,-41.715719 -3.8971,-15.268371 14.52671,-19.426877 26.36356,-17.488017 18.89213,3.372758 46.28676,-7.672949 59.42044,8.430881 0.36922,15.94077 10.81553,51.84473 -14.24572,51.66756 -17.47871,-7.028752 -2.09945,-43.389827 -31.3544,-35.238274 -28.80399,-3.703377 -1.4371,44.612981 -34.35338,34.343569 z"
       id="path3951" />
    <path
       style="fill:#ffffff"
       d="m 117.40285,407.36295 c -15.40756,-4.54944 -12.66777,-22.64245 -12.67408,-35.16284 0.47022,-16.71243 -0.54318,-33.54793 1.28125,-50.1763 7.82802,-15.11003 28.18866,-7.7653 41.90711,-9.50929 18.56209,-2.12715 17.71702,33.19132 -0.45452,31.57984 -19.66814,-4.27662 -20.0625,18.75177 -16.37177,31.71434 4.57968,10.11745 17.47643,5.5595 26.40752,6.51961 10.39471,2.13857 11.83012,-11.1706 12.02979,-18.6196 3.20982,-13.94778 26.28902,-12.93973 33.98233,-4.31906 2.46475,13.40913 4.55052,29.16507 -1.31809,41.90414 -11.194,11.93632 -30.47336,4.3141 -45.0809,6.72162 -13.23173,-0.0588 -26.50712,0.28339 -39.70864,-0.65246 z M 317.35201,406.899 c -16.05598,-6.52135 -9.59763,-27.78804 -10.08995,-41.36595 1.8847,-16.15237 35.67275,-16.19819 35.34943,1.00169 -2.68132,19.11834 19.4544,16.35993 31.75998,15.42246 12.16274,-5.50393 12.48109,-32.66753 -0.53723,-37.1084 -16.19141,3.10358 -28.05917,-11.02528 -20.57383,-26.26079 11.45578,-10.70672 31.07666,-5.92322 45.43337,-4.48375 15.34913,8.60089 8.01244,28.51267 9.78298,42.60715 -1.44616,14.61233 2.60392,31.01102 -3.71025,44.39046 -12.14701,11.75117 -30.72383,5.42596 -45.7885,7.24308 -13.86294,-0.28458 -27.84364,0.20314 -41.626,-1.44595 z m -76.88532,-67.26508 c -8.67287,-9.86265 -8.83385,-30.92622 0.39152,-40.39752 11.7712,-2.56476 35.19024,-6.38878 36.36878,11.09623 2.14516,13.15199 1.04468,34.70459 -17.99128,30.95634 -6.21067,-0.29069 -12.90687,0.82728 -18.76902,-1.65505 z m -60.3552,-62.14729 c -10.07597,-8.0688 -7.3739,-26.55231 -2.9656,-37.21011 11.30813,-5.50376 36.27337,-9.09069 39.69434,7.33213 3.16392,13.88155 0.58256,36.25067 -19.08996,31.71372 -5.84918,-0.28872 -12.21486,0.83609 -17.63878,-1.83574 z m 120.79855,-0.11784 c -9.55877,-9.04329 -10.05265,-32.72346 2.01708,-39.76787 12.95162,-2.89494 37.79927,-4.00666 35.51145,15.73653 3.22527,14.36385 -4.74932,30.67927 -21.72496,25.98712 -5.2495,-0.2602 -11.01177,0.69307 -15.80357,-1.95578 z M 242.92003,218.2247 c -12.37049,-7.70453 -10.33574,-29.95398 -3.28247,-40.63639 11.62717,-2.51014 35.48515,-7.76493 37.32052,9.42169 2.15545,13.15284 2.24401,35.30569 -17.12615,32.14052 -5.63608,0.0634 -11.36156,0.2014 -16.9119,-0.92582 z M 114.61149,203.02187 c -6.25201,-3.47372 -11.49914,-10.40065 -10.01644,-17.84681 0.17215,-21.83511 0.34429,-43.67021 0.51644,-65.50532 5.76135,-11.80284 19.89431,-10.1676 30.99055,-10.29678 19.84144,0.27765 39.79113,-0.90437 59.55481,0.88353 15.20925,7.71246 9.1166,28.91239 8.94772,42.84642 -3.78671,13.12921 -27.12845,12.48044 -34.20163,3.14577 -0.094,-13.66035 -7.07073,-26.83797 -23.12378,-22.8299 -15.10209,-2.64639 -20.12673,12.69566 -17.39851,24.6538 -1.31561,6.90691 2.25732,13.60739 9.91338,14.1705 18.59474,-5.88791 28.37035,18.69112 15.59239,30.08103 -12.92884,3.61053 -27.45859,1.87511 -40.77493,0.69776 z m 244.31291,0.20396 c -13.22094,-5.56582 -9.59979,-35.07169 8.04622,-30.85543 19.72987,2.92917 18.96918,-25.3161 10.91148,-35.90369 -11.12626,-4.87263 -35.41328,-7.05584 -34.38634,10.87817 1.66373,17.80577 -24.06932,18.93592 -33.88565,10.27032 -4.12267,-13.68576 -6.03966,-32.05318 1.88554,-44.52478 13.91071,-7.32147 31.21694,-2.13111 46.50512,-3.761 13.64505,0.67432 27.87042,-1.31371 41.13138,1.90695 13.72502,8.28805 7.95374,26.58095 9.37198,39.70585 -0.4388,14.27628 0.55747,28.70157 -1.37126,42.86929 -8.05514,16.95919 -33.42672,8.81088 -48.20847,9.41432 z"
       id="path3949" />
  </g>
</svg>
